<?xml version="1.0" encoding="iso-8859-1"?>
<!-- Generator: Adobe Illustrator 19.0.0, SVG Export Plug-In . SVG Version: 6.00 Build 0)  -->
<svg version="1.1" id="Capa_1" xmlns="http://www.w3.org/2000/svg" xmlns:xlink="http://www.w3.org/1999/xlink" x="0px" y="0px"
	 viewBox="0 0 490 490" style="enable-background:new 0 0 490 490;" xml:space="preserve">
<g id="line_49_">
	<path d="M226.411,146.325c-3.259-4.406-5.462-9.654-6.64-15.728l-28.886,3.198c2.203,14.978,7.298,26.56,15.269,34.776
		c7.956,8.216,18.314,13.127,31.089,14.718v20.746h16.049v-21.328c14.382-2.127,25.611-7.91,33.705-17.334
		c8.063-9.425,12.117-21.022,12.117-34.776c0-12.316-3.213-22.414-9.639-30.278c-6.426-7.864-18.482-14.274-36.183-19.216V36.505
		c7.16,3.198,11.582,9.272,13.28,18.237l27.998-3.764c-1.913-11.398-6.334-20.501-13.28-27.31
		c-6.931-6.793-16.248-10.924-27.983-12.377V0h-16.049v11.291c-12.683,1.301-22.858,6.181-30.492,14.657
		c-7.634,8.491-11.444,18.956-11.444,31.425c0,12.316,3.366,22.796,10.128,31.425c6.747,8.644,17.35,15.085,31.808,19.323v47.781
		C233.265,153.929,229.654,150.732,226.411,146.325z M253.292,113.018c6.64,1.974,11.413,4.804,14.336,8.491
		c2.907,3.672,4.36,8.078,4.36,13.173c0,5.691-1.729,10.648-5.202,14.887c-3.473,4.223-7.971,6.854-13.509,7.925v-44.476H253.292z
		 M226.518,67.242c-2.356-3.458-3.534-7.206-3.534-11.23c0-4.406,1.3-8.43,3.871-12.087c2.586-3.641,6.059-6.227,10.404-7.742
		v39.458C232.454,73.484,228.874,70.684,226.518,67.242z"/>
	<polygon points="489.793,489.954 489.793,459.355 31.402,459.401 30.806,0.428 0.206,0.459 0.834,490 	"/>
	<polygon points="94.682,386.774 119.803,404.261 192.752,299.413 336.369,396.856 438.127,227.214 480.231,255.794 
		489.793,124.554 371.344,181.897 412.76,210.002 326.776,353.375 184.888,257.11 	"/>
</g>
<g>
</g>
<g>
</g>
<g>
</g>
<g>
</g>
<g>
</g>
<g>
</g>
<g>
</g>
<g>
</g>
<g>
</g>
<g>
</g>
<g>
</g>
<g>
</g>
<g>
</g>
<g>
</g>
<g>
</g>
</svg>
